# xmcd
#
# Track frame offsets:
#	182
#	22870
#	40132
#	62115
#	80160
#	108855
#	130310
#	157497
#	179865
#	208932
#	223067
#
# Disc length: 3291 seconds
#
# Revision: 4
# Processed by: cddbd v1.5.1PL0 Copyright (c) Steve Scherf et al.
# Submitted via: audiograbber 1.83.01
#
DISCID=aa0cd90b
DTITLE=Jimmie Vaughan - Do You Get The Blues?
DYEAR=2001
DGENRE=Blues
TTITLE0=Dirty Girl
TTITLE1=Out Of The Shadows
TTITLE2=The Deep End
TTITLE3=Power Of Love
TTITLE4=Without You
TTITLE5=Let Me In
TTITLE6=Don't Let The Sun Set
TTITLE7=Robbin' Me Blind
TTITLE8=Slow Dance Blues
TTITLE9=In The Middle Of The Night
TTITLE10=Planet Bongo
EXTD=YEAR: 2001 ID3G: 0
EXTT0=
EXTT1=
EXTT2=
EXTT3=
EXTT4=
EXTT5=
EXTT6=
EXTT7=
EXTT8=
EXTT9=
EXTT10=
PLAYORDER=
